<svg xmlns="http://www.w3.org/2000/svg" viewBox="0 0 70 70"><defs><style>.cls-1{fill:#98bf0c;}</style></defs><g id="Calque_2" data-name="Calque 2"><g id="Grid"><path class="cls-1" d="M32.6,0,31.47.14A36.26,36.26,0,0,0,23.21,2a35.16,35.16,0,0,0-10.69,6.1,47.92,47.92,0,0,0-4.45,4.45A35,35,0,0,0,.33,29.7,28.16,28.16,0,0,0,0,35a27.87,27.87,0,0,0,.33,5.27A34.9,34.9,0,0,0,8.07,57.45a48.41,48.41,0,0,0,4.41,4.42,35.12,35.12,0,0,0,19.89,8.06,42.31,42.31,0,0,0,7.94-.3A35.22,35.22,0,0,0,57.48,61.9a48.41,48.41,0,0,0,4.42-4.41,35,35,0,0,0,7.77-17.23A27.87,27.87,0,0,0,70,35a27.87,27.87,0,0,0-.33-5.27,34.9,34.9,0,0,0-7.74-17.19,47.92,47.92,0,0,0-4.45-4.45A35.09,35.09,0,0,0,38.89.16C38,.05,33.2,0,32.6,0Zm5.13.75A34.39,34.39,0,0,1,69.14,31.25,29.93,29.93,0,0,1,69.27,35a27.33,27.33,0,0,1-.44,5.89A34.37,34.37,0,0,1,38.75,69.1a57.13,57.13,0,0,1-7.17,0A34.39,34.39,0,0,1,.86,38.77a50.21,50.21,0,0,1,0-7.56,34.38,34.38,0,0,1,28.5-30C30.52,1,31,.9,32.56.76,33.18.7,37,.72,37.73.78Z"/><path class="cls-1" d="M32.9,8.28c-.67.16-1.15.49-2.48,1.69a11.85,11.85,0,0,1-2.77,1.93,14.09,14.09,0,0,0-3.19,2.33c-2.22,2.15-3,3.53-4.06,7.67a20.72,20.72,0,0,1-1,3.27c-.46,1-.48,1.24-.15,1.52a.82.82,0,0,0,.32.19,3.94,3.94,0,0,1,.67.19c.83.25,1,.51,1.33,1.59a30.37,30.37,0,0,1,.51,3.6,17.91,17.91,0,0,0,1.17,5.06c.22.48.62,1.36,1.05,2.24.53,1.11.52,1,.25,1.88-.07.22-.22.86-.33,1.42-.17.82-.24,1-.41,1.22s-1,.68-3,1.41L19.63,46a1.45,1.45,0,0,1-.27.11,5,5,0,0,0-.57.22l-.82.34c-.56.24-3,1.46-3.62,1.83a10.65,10.65,0,0,0-3.57,2.86,2.44,2.44,0,0,0-.19.8c-.05.33-.11.78-.15,1s-.07,1.19-.07,2.15c0,1.61,0,1.76.13,1.79.74.22,1.4.23,19.7.23,19.94,0,27.75-.08,28-.28a32.38,32.38,0,0,0-.27-4.2,5.6,5.6,0,0,0-.3-1.41c-.65-1.27-2.22-2.45-5.19-3.9a19.06,19.06,0,0,0-2-.93l-.76-.33c-.42-.18-1-.39-2-.8L46.42,45c-1.41-.64-1.67-.83-1.92-1.48a7,7,0,0,1-.24-1.11c-.19-1.51.16-2.81,2-7.5l.32-.8V32.91c0-1.08.07-3,.19-5l0-.74.37,0L48.32,27c1.11-.12,1.71-.35,1.71-.65a2.37,2.37,0,0,0-.32-.58,5.44,5.44,0,0,1-.52-.94l-.26-.63c0-.13-.17-.53-.66-2.26a16,16,0,0,0-3.58-7,18.57,18.57,0,0,0-4.52-3.34A9.87,9.87,0,0,1,37.9,9.75c-1.08-1-1.51-1.32-2.06-1.46A14.45,14.45,0,0,0,32.9,8.28ZM36,9.94c.27.1.41.45.54,1.31s.21,1.6.32,2.4.29,1,.63.9.36-.14.41-.62a2.29,2.29,0,0,1,.13-.58c.1-.19.74-.35,1.4-.35H40l-.05.74c-.23,3.39-.28,5.56-.11,5.62s1.07,0,2.26-.15c2.76-.23,3.38-.23,3.64,0a10.81,10.81,0,0,1,1.49,3.65l.21.8-.21.8c-.12.45-.23.83-.24.84s-5.51,0-12.21,0c-11.66,0-12.2,0-12.85-.13-.44-.08-.7-.17-.72-.24a19.94,19.94,0,0,1,.85-4.34,18.25,18.25,0,0,1,.62-1.84,35.25,35.25,0,0,1,3.6.46,16.28,16.28,0,0,0,2.89.3,21.35,21.35,0,0,0-.3-3.21c-.1-.8-.21-1.73-.24-2.08,0-.56,0-.64.13-.82a1.59,1.59,0,0,1,.87-.48,1.42,1.42,0,0,1,.87.5,2.68,2.68,0,0,1,.29.54c.14.33.4.49.58.38s.23-.59.34-1.82A8.43,8.43,0,0,1,32.21,10,14.42,14.42,0,0,1,36,9.94ZM42.49,15a9.65,9.65,0,0,1,1.64,1.7c0,.17-.28.41-.73.61a6.4,6.4,0,0,1-2,.31H41v-.49c0-1.14.31-2.11.73-2.32C42,14.73,42.11,14.77,42.49,15Zm-15.63,0a4.12,4.12,0,0,1,.74,1.8c0,.37,0,.41-.18.58a1.2,1.2,0,0,1-1.1.29,15,15,0,0,1-2.05-1,15.75,15.75,0,0,1,1.55-1.53C26.36,14.74,26.56,14.71,26.86,15.06ZM43.22,27.4c1.81.15,2.27.25,2.51.53s0,3.37-.37,5.06a13.57,13.57,0,0,1-3,6.46A12.55,12.55,0,0,1,38.31,43a12.15,12.15,0,0,1-6.29.67,12.25,12.25,0,0,1-5.35-3.78,12.47,12.47,0,0,1-3.2-6.29,44.35,44.35,0,0,1-.4-6.2C23.21,27.26,41.49,27.25,43.22,27.4ZM43,42.51a20.52,20.52,0,0,1-2.75,4.69,36.51,36.51,0,0,1-2.49,3.13l-.16.14-.18-.21a12.72,12.72,0,0,1-1.51-4.13,10.09,10.09,0,0,1,1.64-.77,15.66,15.66,0,0,0,3.59-2C42.71,42.24,43,42.11,43,42.51Zm-16.62.37c.19.09.67.35,1,.58,1.56.93,2,1.16,2.62,1.5a13.64,13.64,0,0,0,1.58.67,5.59,5.59,0,0,1,1,.42c.07.08.06.21,0,.56s-.46,1.31-.62,1.68c-.48,1.08-.61,1.38-.77,1.67s-.24.33-.29.33c-.41,0-3.91-4.85-4.78-6.64-.28-.61-.35-.92-.17-.92A2.46,2.46,0,0,1,26.35,42.88Zm18,3c1,.38,4,1.53,4.33,1.7l.65.26.81.32c.16.08.72.32,1.25.54s1.39.62,1.91.88c1.86.94,2.67,1.59,3.13,2.54a5.49,5.49,0,0,1,.33.89,21.66,21.66,0,0,1,.17,2.89c-.06.07-10.71-.06-14.44-.17-3-.1-3.55-.23-3.79-.86a4.08,4.08,0,0,1,.38-2.51,49.26,49.26,0,0,1,3-5c1-1.49,1.29-1.87,1.42-1.82Zm-19.48.21c.9.37,3.79,4.39,4.65,6.46a4.23,4.23,0,0,1,.25,2,1.25,1.25,0,0,1-.68.81,32.71,32.71,0,0,1-5.95.39l-6.51.15-4.09.1-1,0v-.48a14.49,14.49,0,0,1,.29-2.89A4.19,4.19,0,0,1,14,50.39c.54-.32,2.91-1.51,3.59-1.8l1.06-.46a40.1,40.1,0,0,1,5.59-2.05l.4-.07Zm10,2.92A20.89,20.89,0,0,1,36,51.22c0,.19-1.58.23-2.26.06-1-.24-1.14-.52-.6-1.61a6.78,6.78,0,0,1,.73-1.16l.39-.48.17.21A5.63,5.63,0,0,1,34.91,49Zm.5,4.31a3.3,3.3,0,0,0,.47.15A1.8,1.8,0,0,1,37.07,55c0,.34-.39.69-.85.75a24.5,24.5,0,0,1-3.53.06,2,2,0,0,1-1.39-.53c-.29-.47,1.1-1.75,2.12-2A7.22,7.22,0,0,1,35.41,53.34Z"/></g></g></svg>