<svg xmlns="http://www.w3.org/2000/svg" viewBox="0 0 70 70"><defs><style>.cls-1{fill:#ff6d70;}</style></defs><g id="Calque_2" data-name="Calque 2"><g id="Grid"><path class="cls-1" d="M32.6,0,31.47.14A36.26,36.26,0,0,0,23.21,2a35.16,35.16,0,0,0-10.69,6.1,47.92,47.92,0,0,0-4.45,4.45A35,35,0,0,0,.33,29.7,28.16,28.16,0,0,0,0,35a27.87,27.87,0,0,0,.33,5.27A34.9,34.9,0,0,0,8.07,57.45a48.41,48.41,0,0,0,4.41,4.42,35.12,35.12,0,0,0,19.89,8.06,42.31,42.31,0,0,0,7.94-.3A35.22,35.22,0,0,0,57.48,61.9a48.41,48.41,0,0,0,4.42-4.41,35,35,0,0,0,7.77-17.23A27.87,27.87,0,0,0,70,35a27.87,27.87,0,0,0-.33-5.27,34.9,34.9,0,0,0-7.74-17.19,47.92,47.92,0,0,0-4.45-4.45A35.09,35.09,0,0,0,38.89.16C38,.05,33.2,0,32.6,0Zm4.84.75A34.56,34.56,0,0,1,57.34,9,41.68,41.68,0,0,1,61,12.6a34.21,34.21,0,0,1,7.35,14.25,31.9,31.9,0,0,1,1,8.87,31.4,31.4,0,0,1-.67,6.15A34.38,34.38,0,0,1,53.85,63.63a30.36,30.36,0,0,1-3.93,2.23A34.54,34.54,0,0,1,38.57,69.1a51.66,51.66,0,0,1-6.81,0,34.62,34.62,0,0,1-11.9-3.4,34.27,34.27,0,0,1,3.8-63.11A34.66,34.66,0,0,1,31.78.86l1.15-.1C33.55.7,36.56.72,37.44.78Z"/><path class="cls-1" d="M43.8,12.53a.7.7,0,0,0-.52.54,1.5,1.5,0,0,1-.34.5.7.7,0,0,0-.3.66c0,.45.12.58.63.69.34.08.39.11.41.27a1.43,1.43,0,0,1-.47.94,1.19,1.19,0,0,1-1.06.43c-.45,0-.52,0-.68-.2a.88.88,0,0,1-.22-.36c0-.17,0-.17-1.32-.17-.71,0-1.66,0-2.11.08L37,16l-.51-.49a5.14,5.14,0,0,0-.89-.67,6.79,6.79,0,0,1-.78-.43,1.38,1.38,0,0,0-1.59,0l-.3.25-.32-.31a1.81,1.81,0,0,0-.52-.37,5.32,5.32,0,0,0-2,0,2.29,2.29,0,0,1-.6.13c-.79.06-1,.2-1.15.85a.57.57,0,0,1-.38.44,2.55,2.55,0,0,0-.52.33c-.25.23-.43.26-1.55.34a3.74,3.74,0,0,0-.85.11c-.13.11-.12.36.06.82s.16.7-.16.85-.34.26-.35,1c0,.54,0,.59-.21.77a2.1,2.1,0,0,1-.93.53c-.4.12-1,.56-1,.75a1.44,1.44,0,0,0,.22.45c.26.4.27.54,0,.89s-.5.42-1.15.4c-.38,0-.51,0-.63.12a.89.89,0,0,0,0,1c.13.18.13.18-.08.42a.62.62,0,0,0,0,.92,1.15,1.15,0,0,1,.28.56c0,.26.09.34.28.42s.24.14.24.17a2.94,2.94,0,0,1-.65,1l-.38.4.13.54.12.54-.23.37a2,2,0,0,0-.28.65l0,.29-.46,0a2.52,2.52,0,0,0-1,.3c-.32.14-.6.26-.63.26a1.29,1.29,0,0,1-.51-.55,1.52,1.52,0,0,0-.55-.75,4.47,4.47,0,0,0-1-.08h-.8l-.43.4c-.49.45-.46.44-2,.55-1.28.09-1.57.16-1.73.39a2.73,2.73,0,0,1-1.21.7l-.46.11c-.32.1-.53.84-.34,1.2.1.19.46.29,1,.27s.68.07.51.32-.12.38-.12,1.36v1.19l.47.5c.56.57.61.76.21.84s-.56.19-.88.81-.38.94-.14,1.16a.76.76,0,0,0,1,.06,3.16,3.16,0,0,1,.41-.19,2.75,2.75,0,0,1,.21.39,7,7,0,0,0,1.93,1.85c1,.71,1.06.85.55,1.46-.26.31-.33.44-.33.66a.77.77,0,0,0,.71.7,1.14,1.14,0,0,1,.48.2,1,1,0,0,0,.44.15c.3,0,.41.09.41.29a.91.91,0,0,0,.38.76c.19.13.21.16.1.19a1.56,1.56,0,0,0-.37.41,1.37,1.37,0,0,1-.59.5c-.3.13-.32.16-.32.42A1.83,1.83,0,0,0,15.89,48a1.54,1.54,0,0,1,.48,1c.05.4.08.46.36.66.13.08.12.1-.11.24a2.18,2.18,0,0,1-.55.22,1.83,1.83,0,0,0-.59.3,2.3,2.3,0,0,1-.64.34c-.5.17-.54.22-.54.62s0,.37.18.44a1,1,0,0,1,.32.32.93.93,0,0,0,.55.39,2.15,2.15,0,0,0,.51.15c.2,0,.55.17.55.26s-.1.14-.61.21-.46.14-.6.61a2.11,2.11,0,0,0,.12,1.63,1,1,0,0,0,1.09-.06,1.3,1.3,0,0,1,.49-.26l.47-.11a1.13,1.13,0,0,1,.6.15,6.81,6.81,0,0,0,1,.3c.67.14.71.16,1.07.54.19.2.34.29.47.29a2.12,2.12,0,0,1,.46.08c.35.1.39.23.32,1.12s0,1,.16,1.09a12.26,12.26,0,0,0,1.29.09l1.17,0,.29.32a2.15,2.15,0,0,0,1.1.65l.24,0-.05.63c-.05.76,0,.85.53.78a2.4,2.4,0,0,0,1.26-.59.78.78,0,0,1,.74-.24,1.25,1.25,0,0,0,.68-.13l.26-.13.39.37c.43.4.8.56,1.14.45a2.83,2.83,0,0,0,.77-.56,2.7,2.7,0,0,0,.83-1.09c.28-.56.56-.89.77-.89s.57-.41.83-.86.45-.59.82-.59a1.33,1.33,0,0,0,1-.39c.15-.17.18-.28.18-.68a10.53,10.53,0,0,0-.42-2.53,1.76,1.76,0,0,1,.19-1.69c.16-.35.37-.89.48-1.21a1.79,1.79,0,0,1,.32-.62,3.12,3.12,0,0,1,.56-.15c.78-.17,1-.42.58-.86-.23-.28-.24-.43,0-.28s.51.14.86-.14a1.88,1.88,0,0,1,.4-.25,1,1,0,0,0,.54-.48,1,1,0,0,1,.37-.34L40,47a4.72,4.72,0,0,1,1-.15,2.66,2.66,0,0,0,.91-.15A.5.5,0,0,0,42,46.3c0-.32.14-.59.62-1.15a6.36,6.36,0,0,0,.55-.76c.15-.26.25-.34.45-.38a1.93,1.93,0,0,0,1-.7,1.63,1.63,0,0,0,.11-.67,1.68,1.68,0,0,1,.19-.82A2.77,2.77,0,0,0,45,40c-.1-.19-.1-.25,0-.59s.37-.74.55-.66a3,3,0,0,0,1.18.15c.51,0,.6-.15.54-.65l0-.41.37-.27a1.48,1.48,0,0,0,.53-.64,4.28,4.28,0,0,1,1.27-1.35l.25-.19-.2-.37c-.22-.45-.23-.53,0-.53s.52-.3.57-.72.08-.41.23-.5a2.33,2.33,0,0,0,.38-.34,1.06,1.06,0,0,1,.4-.3,1.66,1.66,0,0,0,.39-.28.85.85,0,0,1,.44-.23,1.08,1.08,0,0,0,.34-.12,3.1,3.1,0,0,0,.14-1c0-.69.08-.93.15-1a7.07,7.07,0,0,1,1,.08c1.33.17,1.59.06,1.73-.72a1.82,1.82,0,0,1,.47-.94A2.59,2.59,0,0,0,56,28a5.81,5.81,0,0,1,.26-.62,1.87,1.87,0,0,0,.21-.79,1.24,1.24,0,0,1,.08-.47,2.91,2.91,0,0,0,0-1.14c-.07-.56-.14-1.11-.17-1.22s.06-.26.42,0a2.79,2.79,0,0,0,1.69.23,2.37,2.37,0,0,0,1.15-.58c.56-.38.79-.59.88-.8a1.2,1.2,0,0,1,.3-.38,1.35,1.35,0,0,0,.3-1.46,2.84,2.84,0,0,1-.25-.56,1.63,1.63,0,0,0-.26-.48.8.8,0,0,1-.15-.32,1,1,0,0,0-.45-.72,2.1,2.1,0,0,1-.5-.4c-.25-.26-.34-.31-.57-.31a.61.61,0,0,0-.49.2l-.2.19v-.18c0-.24-.18-.43-.89-.93a3.89,3.89,0,0,1-.64-.5.23.23,0,0,1,.08-.14,2.76,2.76,0,0,0,.13-.77,1.92,1.92,0,0,1,.22-1,1.12,1.12,0,0,0-.18-1.32,1.59,1.59,0,0,1-.3-.72l0-.32L56,12.45a20,20,0,0,0-3.86.14c-.74.24-1.18.84-1,1.37.07.2.07.2-.3.3a6.87,6.87,0,0,1-1.47.26c-.71.07-.91.19-.91.56,0,.14,0,.17-.18.17a3,3,0,0,1-1.23-.51,1.08,1.08,0,0,0-.43-.22c-.25,0-.4-.13-.88-.81-.67-.94-1-1.21-1.36-1.26A1.44,1.44,0,0,0,43.8,12.53Zm.91,1.14c1.1,1.27,1.4,1.58,1.5,1.58a3.46,3.46,0,0,1,.65.29,3.78,3.78,0,0,0,.65.29,1,1,0,0,1,.33.19c.42.3.83.19,1.35-.37a1.2,1.2,0,0,1,.81-.42A10.85,10.85,0,0,1,51.12,15c.48,0,.63-.1.78-.25s.31-.77.13-.94-.09-.33.3-.5a3.8,3.8,0,0,1,2.13-.21l1.13.08.28.31c.15.17.36.41.46.54l.18.23-.18.34a4.62,4.62,0,0,0-.41,1.62c-.06.42-.06.56,0,.73a5,5,0,0,0,1.16,1.08c.14.1.27.24.27.31A.72.72,0,0,0,58.5,19c.29-.19.4-.18.7.07a5.4,5.4,0,0,1,.94,1.64,1.35,1.35,0,0,0,.12.36l.13.27-.26.23a1.58,1.58,0,0,0-.38.5c-.06.15-.14.28-.18.28a2.57,2.57,0,0,0-.53.36,1.87,1.87,0,0,1-2.14.16c-.49-.31-.71-.31-1,0a1,1,0,0,0-.3,1.19,2.3,2.3,0,0,1,0,1.92.69.69,0,0,0,0,.56c.1.34,0,.71-.65,1.68a4.75,4.75,0,0,0-.46.86c0,.25-.27.3-1.29.25-.83,0-1,0-1.15.06s-.39.48-.47,1.11-.17.9-.5,1.09c-.15.09-.58.4-1,.7-.64.51-.87.78-.87,1a1.81,1.81,0,0,1-.36.52c-.39.43-.46.72-.28,1.07.07.13,0,.18-.29.47a4.59,4.59,0,0,0-.64.8,4.62,4.62,0,0,1-.68.88,1.76,1.76,0,0,0-.48.65c-.06.29-.19.35-.44.19-.46-.3-1.11,0-1.57.76a1.84,1.84,0,0,0-.14,1.7.69.69,0,0,1-.06.91c-.18.23-.21.35-.25.86-.05.81-.29,1.19-.76,1.19a1.28,1.28,0,0,0-.79.64,4.6,4.6,0,0,1-.49.74c-.21.26-.48.62-.6.8s-.22.32-.82.42a2.83,2.83,0,0,0-1.7.82c-.7.6-.86.68-1.48.66s-.52,0-.75.24a.92.92,0,0,0-.27.84c0,.19,0,.22-.23.33-.52.21-.67.43-1,1.45-.08.24-.27.7-.42,1a2.63,2.63,0,0,0-.12,2.23,9.71,9.71,0,0,1,.41,2.06L35,56h-.48a1.46,1.46,0,0,0-1.53,1,.8.8,0,0,1-.46.46,3,3,0,0,0-1.15,1.31,1.5,1.5,0,0,1-.48.63,1.18,1.18,0,0,0-.37.4c-.17.37-.33.33-.83-.17s-.7-.59-1.18-.34-.37.18-.61.06-.62,0-1.07.45c-.19.19-.37.33-.41.31a.68.68,0,0,1-.12-.35,1.33,1.33,0,0,0-.9-.93,1.44,1.44,0,0,1-.68-.5L24.33,58l-1.2-.06-1.21-.07,0-.3c0-.16.06-.56.09-.89,0-.56,0-.6-.14-.76a1.16,1.16,0,0,0-.64-.27,2.11,2.11,0,0,1-1.12-.51,1,1,0,0,0-.47-.23.65.65,0,0,1-.34-.11,2.19,2.19,0,0,0-.56-.19,3,3,0,0,1-.83-.32,2.46,2.46,0,0,0-.47-.25,1.84,1.84,0,0,0-.38.17c-.42.25-1.13.45-1.23.35s0-.47.31-.54c.52-.14.66-.22.84-.53a1.07,1.07,0,0,0,.1-1,1.63,1.63,0,0,0-.85-.39c-.4-.1-.74-.32-.74-.48s.51-.53.83-.62c.52-.14,1.42-.95,1.42-1.27a1.48,1.48,0,0,0-.25-.4,1.61,1.61,0,0,1-.3-.58,2.22,2.22,0,0,0-.53-1,1.7,1.7,0,0,1-.3-.44,2.17,2.17,0,0,1,.68-.88c.45-.27.52-.69.23-1.38a2.44,2.44,0,0,1-.18-.58c0-.29-.8-.88-1.18-.88a1.25,1.25,0,0,1-.45-.14,1.27,1.27,0,0,0-.37-.15c-.16,0-.14-.09.14-.51.52-.78.31-1.23-1-2.21a6.16,6.16,0,0,1-1.76-1.74c-.3-.47-.43-.56-.82-.56s-.49-.11-.38-.26a.35.35,0,0,1,.24-.1,1,1,0,0,0,.74-.5c.22-.43.13-.79-.29-1.24a1.67,1.67,0,0,1-.62-1.56c0-.68,0-.76.18-1a.82.82,0,0,0,.07-.92,2,2,0,0,0-1-.49c-.33-.06-.28-.13.23-.3a3.86,3.86,0,0,0,.77-.37,3.14,3.14,0,0,1,2-.54,8,8,0,0,0,1.25-.13,3.27,3.27,0,0,0,.54-.37,1.25,1.25,0,0,1,.94-.44c.37,0,.44,0,.82.56s.75.78,1.34.73a1.36,1.36,0,0,0,.71-.22c.36-.23.44-.24.68,0a.65.65,0,0,0,.83,0,2,2,0,0,0,.45-1,6.53,6.53,0,0,1,.27-.77,2.19,2.19,0,0,0,.18-.92,1.06,1.06,0,0,1,.28-.88,2.56,2.56,0,0,0,.53-1.37.72.72,0,0,0-.26-.53,1.11,1.11,0,0,1-.26-.43c0-.08,0-.17-.07-.19s-.09-.42,0-.58a1,1,0,0,0,.11-.56v-.43h.32c.53,0,1.06-.29,1.06-.57a2.31,2.31,0,0,1,.27-.55l.27-.42-.21-.39c-.24-.44-.2-.57.25-.65a1.8,1.8,0,0,0,1-.66c.42-.48.55-.8.45-1.08s-.11-.36.28-.78a4.59,4.59,0,0,0,.46-.61c.12-.22.11-.24,0-.43s-.1-.34.67-.4A1.68,1.68,0,0,0,28,16.48c.27-.18.64-.41.83-.52a.88.88,0,0,0,.5-.8c0-.16.19-.24.83-.3a8.92,8.92,0,0,0,1-.16c.52-.13.57-.12,1.15.41a2.51,2.51,0,0,0,.57.4.89.89,0,0,0,.73-.33c.32-.36.64-.33,1.28.14a1.26,1.26,0,0,0,.45.22,2.76,2.76,0,0,1,.73.58c.62.6.87.72,1.25.63.09,0,.88,0,1.74-.05h1.58l.3.21a1.7,1.7,0,0,0,1.19.46,3.5,3.5,0,0,0,.72-.08,4.65,4.65,0,0,0,1.64-1.13,2.84,2.84,0,0,0,.08-.81v-.63l-.38-.34L43.75,14l.16-.36a2.28,2.28,0,0,0,.15-.47C44.06,13,44.2,13.07,44.71,13.67Z"/><path class="cls-1" d="M31.46,28.21a8.08,8.08,0,0,0-.91.38,3.82,3.82,0,0,0-1.77,3.06c0,.88.54,2.1,1.7,3.85a21.36,21.36,0,0,0,1.95,2.58,14.08,14.08,0,0,0,1.46-1.86,12.33,12.33,0,0,0,2.16-4.12,3.65,3.65,0,0,0-1.87-3.57A3.46,3.46,0,0,0,31.46,28.21Zm1.88,1.71a2,2,0,1,1-2.94,2,2,2,0,0,1,2.94-2Z"/><path class="cls-1" d="M30.07,36.84c-1.56.5-1.39,1.3.37,1.76a10.56,10.56,0,0,0,3.43.1c1.29-.21,2-.57,2-1s-.27-.55-.85-.76-.91-.27-1.07-.08-.13.16-.11.18a2.69,2.69,0,0,0,.56.14c1,.21,1.26.53.73.8a9.84,9.84,0,0,1-5.3,0c-.34-.17-.4-.29-.21-.47a2.23,2.23,0,0,1,1.1-.37l.41-.08L31,36.87C30.85,36.66,30.65,36.65,30.07,36.84Z"/></g></g></svg>