<svg xmlns="http://www.w3.org/2000/svg" viewBox="0 0 70 70"><defs><style>.cls-1{fill:#0099d5;}</style></defs><g id="Calque_2" data-name="Calque 2"><g id="Grid"><path class="cls-1" d="M32.6,0,31.47.14A36.26,36.26,0,0,0,23.21,2a35.16,35.16,0,0,0-10.69,6.1,47.92,47.92,0,0,0-4.45,4.45A35,35,0,0,0,.33,29.7,28.16,28.16,0,0,0,0,35a27.87,27.87,0,0,0,.33,5.27A34.9,34.9,0,0,0,8.07,57.45a48.41,48.41,0,0,0,4.41,4.42,35.12,35.12,0,0,0,19.89,8.06,42.31,42.31,0,0,0,7.94-.3A35.22,35.22,0,0,0,57.48,61.9a48.41,48.41,0,0,0,4.42-4.41,35,35,0,0,0,7.77-17.23A27.87,27.87,0,0,0,70,35a27.87,27.87,0,0,0-.33-5.27,34.9,34.9,0,0,0-7.74-17.19,47.92,47.92,0,0,0-4.45-4.45A35.09,35.09,0,0,0,38.89.16C38,.05,33.2,0,32.6,0Zm5.13.75A34.39,34.39,0,0,1,69.14,31.25,29.93,29.93,0,0,1,69.27,35a27.33,27.33,0,0,1-.44,5.89A34.37,34.37,0,0,1,38.75,69.1a57.13,57.13,0,0,1-7.17,0A34.39,34.39,0,0,1,.86,38.77a50.21,50.21,0,0,1,0-7.56,34.38,34.38,0,0,1,28.5-30C30.52,1,31,.9,32.56.76,33.18.7,37,.72,37.73.78Z"/><path class="cls-1" d="M33,10a1.88,1.88,0,0,0-1.1,1,1,1,0,0,1-.11.25A10.86,10.86,0,0,0,31.4,13c0,.27-.1,1.16-.12,2s-.05,1.54-.07,1.62a.26.26,0,0,1-.23.2c-.35.09-2.25.43-4.13.75-1.28.21-1.83.31-2.26.39l-1,.18c-4.45.8-6.89,1.6-7.2,2.36-.13.31-.08.43.58,1.49l.53.85,0,1a6,6,0,0,1-.12,1.17l-.33,1c-.26.86-.72,2.17-.84,2.4,0,.08-.17.41-.29.73s-.26.65-.29.73-.13.3-.22.5-.2.46-.25.59-.24.54-.41.94-.42,1-.55,1.26-.25.54-.25.56-.24.59-.62,1.4a2.94,2.94,0,0,0-.18.42s-.13.31-.29.65-.29.64-.29.65-.1.25-.22.53L12,37.9c0,.08-.15.34-.26.58l-.33.8c-.08.2-.17.43-.21.51-.17.39-.73,1.89-.91,2.43a7.72,7.72,0,0,1-.27.8,6.34,6.34,0,0,0-.11,1.1,2.25,2.25,0,0,0,.58,2,8.64,8.64,0,0,0,2.71,2.28,3.93,3.93,0,0,0,1.7.35,60.65,60.65,0,0,0,7.76,0,3.38,3.38,0,0,0,.8-.18.29.29,0,0,1,.19-.06,8.56,8.56,0,0,0,1.81-1,6.66,6.66,0,0,0,1.39-1.36,2.52,2.52,0,0,0,.62-2.81c-.11-.32-.22-.65-.26-.73s-.17-.4-.29-.72l-.29-.73c0-.08-.36-.85-.71-1.71l-.85-2c-.1-.22-.19-.43-.19-.45a6,6,0,0,0-.25-.59c-.14-.3-.26-.57-.26-.59a3.52,3.52,0,0,0-.19-.45c-.1-.22-.3-.69-.44-1-.26-.62-.35-.83-.94-2.14l-.33-.8c-.08-.21-.19-.48-.25-.62a4,4,0,0,1-.18-.42c-.12-.29-.2-.48-.35-.82s-1-2.55-1.17-3.12l-.22-.62a7.77,7.77,0,0,1-.53-2.19c0-.93.38-1.2,1.91-1.33,1.09-.09,8.85-.2,9.13-.12l.21,0,0,2.41c-.2,10.17-.41,16.82-.7,22.15,0,.7-.11,1.93-.15,2.73s-.09,1.9-.09,2.43l0,1-1.31.56A12.12,12.12,0,0,0,24.56,56a2.29,2.29,0,0,0-.85,1.85c.06.31.27.45.83.55,2.29.41,1.78.38,7.33.42,8,0,11.29-.13,12-.64.22-.17.22-.8,0-1.27-.49-1-2.18-2.25-4.18-3.08l-.73-.3a3.16,3.16,0,0,1-1.16-.63c-.06-.12-.11-1-.33-5.55,0-.82-.1-2.18-.15-3s-.11-2.19-.15-3c-.09-1.79-.18-5-.31-11.85-.06-2.87-.13-5.66-.16-6.19-.05-.91,0-1,.1-1s8.83,0,9.87.14a1.64,1.64,0,0,1,1.21.62,3.09,3.09,0,0,1-.09,1.53,13.51,13.51,0,0,1-.58,1.79.48.48,0,0,0-.06.21,1.13,1.13,0,0,1-.11.3c-.19.45-.27.68-.38,1a5.12,5.12,0,0,1-.21.54c-.05.12-.25.6-.43,1.06s-.4,1-.48,1.12l-.5,1.2c-.21.49-.49,1.14-.63,1.44l-.25.56s-.1.25-.22.53c-.27.59-.48,1.07-.61,1.36-.06.12-.2.45-.32.72s-.23.51-.23.52-.1.25-.23.52-.24.56-.28.64-.15.34-.25.57-.19.44-.19.46a8.21,8.21,0,0,1-.36.86c0,.08-.22.54-.4,1s-.36.94-.4,1-.3.83-.54,1.61a2,2,0,0,0,.18,1.73A6.28,6.28,0,0,0,43.4,48.2c1,.47,1.92.58,5.43.62,3.73,0,4.86-.06,5.75-.5a8.88,8.88,0,0,0,3.17-3.1,3,3,0,0,1,.29-.51,2.18,2.18,0,0,0,0-1,7.09,7.09,0,0,1-.26-.74c-.19-.6-.86-2.33-1.14-3L56,38.48c-.29-.68-.63-1.47-.77-1.77a6.09,6.09,0,0,1-.25-.56s-.13-.31-.29-.65-.29-.64-.29-.66-.13-.31-.29-.65-.29-.64-.29-.65-.1-.25-.23-.53c-.24-.55-.32-.73-.61-1.36l-.51-1.17c-.11-.24-.26-.6-.33-.8l-.21-.51c0-.08-.17-.4-.29-.72l-.3-.73c-.1-.23-.58-1.56-.69-1.93,0-.18-.16-.57-.25-.87a4,4,0,0,1-.17-1.24,3.45,3.45,0,0,1,.58-2l.37-.65a1.25,1.25,0,0,0,.09-.46c0-.22,0-.3-.32-.55-.74-.65-1.85-1-3.9-1.43l-1-.18c-.2,0-.52-.09-.73-.11l-.73-.11L43.48,18l-1.42-.22-.87-.14c-.3,0-1.42-.25-1.61-.29l-.69-.15a15,15,0,0,1-2.19-.61,6.93,6.93,0,0,1-.16-1.21c-.06-.64-.13-1.33-.15-1.53-.23-2.33-.58-3.29-1.38-3.71A6.55,6.55,0,0,0,33,10Zm1.26,1.36a2.91,2.91,0,0,1,1.07,1.55,2.44,2.44,0,0,1-1.21,1.85c-.46.1-1.12-.31-1.61-1-.24-.33-.25-.48-.09-1,.28-.87.58-1.26,1.14-1.49C33.92,11.15,33.9,11.15,34.23,11.36Zm-.08,5.48c.25.82.41,5.15.41,10.88,0,4.59,0,5.81-.22,9a10.74,10.74,0,0,1-.4,3c-.09.08-.24-.08-.34-.41-.24-.71-.36-3.74-.43-10.35,0-4.13,0-5.57.08-7.64.17-3.73.26-4.56.5-4.89C33.85,16.3,34.05,16.49,34.15,16.84Zm-3.84,1.8a1,1,0,0,1,.4.25c.19.2.22.27.22.69s0,.49-.19.65-.3.19-1.15.29a44.63,44.63,0,0,1-5.35.09c-2.41,0-4.49-.07-4.63-.1l-.25-.07.21-.08c.13,0,.52-.13.88-.2l.94-.18.73-.16.95-.18.89-.17.51-.1a4,4,0,0,1,.56-.12c.46-.07,1.13-.19,2.29-.4A8,8,0,0,1,30.31,18.64Zm9.27.18c1.36.19,2.76.41,4.15.64l2.33.4,1,.18,1.05.19a5.79,5.79,0,0,1,.79.18c.41.22-9.23.33-10.92.12-.84-.11-1-.17-1.12-.53a1.86,1.86,0,0,1,0-1C37.1,18.62,37.81,18.57,39.58,18.82ZM49.92,29.19c.7,1.41,1.43,2.93,2.16,4.45.2.43.59,1.23.86,1.79.44.92.79,1.65,1.38,2.9a35.29,35.29,0,0,1,1.64,4c.08.37-.08.4-2,.46-1.61,0-8.63,0-10-.11s-1.5-.22-1.1-1.53c.11-.37.62-1.8.77-2.17a1.23,1.23,0,0,0,.08-.3.32.32,0,0,1,.06-.15,6.5,6.5,0,0,0,.27-.62c.1-.29.24-.64.29-.76a79.67,79.67,0,0,1,3.42-7.38,17.24,17.24,0,0,1,1.35-2A13.89,13.89,0,0,1,49.92,29.19ZM19,28.48a34.89,34.89,0,0,1,2.37,4.62c.1.2.31.65.47,1a6.71,6.71,0,0,1,.3.69s.1.24.22.5a4.78,4.78,0,0,1,.21.5l.23.52c.33.74.32.72.78,1.84A21.57,21.57,0,0,1,25,42.24l0,.31-.65.08a107.74,107.74,0,0,1-12,.15,3.45,3.45,0,0,1-.65-.15s.05-.38.24-.81l.42-1c.18-.42.43-1,.54-1.23.64-1.39.75-1.62.75-1.63s.18-.42.4-.89.45-1,.51-1.08.23-.52.4-.88l.94-2c.1-.2.31-.66.48-1s.42-.88.53-1.13c.21-.47.86-1.83,1.26-2.66C18.5,27.75,18.48,27.75,19,28.48Zm15.64,13A1,1,0,0,1,35,42c.4.9.43,8.46.05,9.55a1.27,1.27,0,0,1-1.69.71,1,1,0,0,1-.81-.84c-.13-.4-.14-.72-.14-4.57,0-3.66,0-4.2.13-4.57.22-.77.42-.91,1.26-.92A1.38,1.38,0,0,1,34.66,41.5ZM23.32,45a19.42,19.42,0,0,1,2,.2c.38.14.28.32-.37.76a12,12,0,0,1-2.17,1.11.26.26,0,0,0-.17.07,8.72,8.72,0,0,1-1.56.37,26.27,26.27,0,0,1-5.14.15,7.43,7.43,0,0,1-3.41-1.38c-.42-.33-.79-.78-.73-.88C12,45,19.14,44.77,23.32,45Zm28.2,0a29.08,29.08,0,0,1,4.07.17,2.88,2.88,0,0,1,.5.18c.11.11-1.1.94-2,1.39a8.67,8.67,0,0,1-3.7.88,19.79,19.79,0,0,1-3.27,0,8,8,0,0,1-3.28-1,9.24,9.24,0,0,1-1.93-1.25c0-.19.91-.28,3.11-.33L47.55,45C47.73,45,49.52,45,51.52,45.06ZM36.31,54.69a22.43,22.43,0,0,1,3.95.89c.79.3,1.76,1,1.76,1.27,0,0-.09.09-.19.14a13.07,13.07,0,0,1-3.45.35c-4.83.16-6.16.16-8.74,0s-3.59-.25-3.91-.53a.8.8,0,0,1,.14-.26c.53-.77,2.48-1.47,5.13-1.84.44-.06.83-.12.87-.14A38,38,0,0,1,36.31,54.69Z"/></g></g></svg>